<?xml version="1.0" encoding="utf-8"?>
<!-- Generator: Adobe Illustrator 22.1.0, SVG Export Plug-In . SVG Version: 6.00 Build 0)  -->
<svg version="1.1" id="レイヤー_1" xmlns="http://www.w3.org/2000/svg" xmlns:xlink="http://www.w3.org/1999/xlink" x="0px"
	 y="0px" viewBox="0 0 143.6 28.3" style="enable-background:new 0 0 143.6 28.3;" xml:space="preserve">
<style type="text/css">
	.st0{fill:#FFFFFF;stroke:#FFFFFF;stroke-width:11;stroke-linecap:round;stroke-linejoin:round;stroke-miterlimit:10;}
	.st1{fill:#1C448E;stroke:#1C448E;stroke-width:7;stroke-linecap:round;stroke-linejoin:round;stroke-miterlimit:10;}
	.st2{fill:#FFFFFF;stroke:#FFFFFF;stroke-width:0.5;stroke-miterlimit:10;}
</style>
<g>
	<path class="st0" d="M21.9,20.8c0,1.2-0.6,1.7-1.7,1.7H7.3c-1.2,0-1.8-0.5-1.8-1.7V7.9c0-1.2,0.6-1.7,1.8-1.7h12.9
		c1.2,0,1.7,0.6,1.7,1.7V20.8z M19.6,21.2c0.6,0,0.9-0.2,0.9-0.7V8.3c0-0.6-0.2-0.7-0.9-0.7H7.9C7.2,7.5,7,7.7,7,8.3v12.2
		c0,0.6,0.2,0.7,0.9,0.7H19.6z M8.7,10.6c-0.3,0-0.5-0.3-0.5-0.6c0-0.4,0.2-0.6,0.5-0.6h10.1c0.3,0,0.5,0.3,0.5,0.6
		c0,0.4-0.2,0.6-0.5,0.6h-4.6v2.9h3.9c0.3,0,0.5,0.2,0.5,0.6c0,0.4-0.2,0.6-0.5,0.6h-3.9v3.3H19c0.3,0,0.5,0.3,0.5,0.6
		c0,0.4-0.2,0.6-0.5,0.6H8.4c-0.3,0-0.5-0.3-0.5-0.6c0-0.4,0.2-0.6,0.5-0.6h4.3v-3.3H9.3c-0.3,0-0.5-0.3-0.5-0.6
		c0-0.4,0.2-0.6,0.5-0.6h3.5v-2.9H8.7z M16.5,15.1c0.2,0,0.3,0.1,0.5,0.2c0.3,0.4,0.7,1,1,1.5c0,0.1,0.1,0.1,0.1,0.2
		c0,0.2-0.1,0.4-0.4,0.6c-0.1,0-0.2,0.1-0.3,0.1c-0.2,0-0.4-0.1-0.5-0.3c-0.2-0.5-0.6-1-0.9-1.5c-0.1-0.1-0.1-0.2-0.1-0.2
		c0-0.2,0.1-0.4,0.4-0.5C16.3,15.1,16.4,15.1,16.5,15.1z"/>
	<path class="st0" d="M28.1,15c0-0.4-0.1-0.5-0.5-0.5h-1.9c-0.3,0-0.6-0.2-0.6-0.7c0-0.4,0.2-0.7,0.6-0.7h2.4c1,0,1.4,0.5,1.4,1.5
		v4.5c0.6,1.2,1.4,1.7,2.5,2c0.9,0.2,2.1,0.3,3.6,0.3c2.3,0,4.7-0.1,6.6-0.2c0,0,0.1,0,0.1,0c0.5,0,0.7,0.2,0.7,0.7c0,0,0,0,0,0.1
		c0,0.4-0.2,0.7-0.7,0.7c-1.9,0.1-4.5,0.2-6.8,0.2c-1.7,0-3.1-0.1-4-0.4c-1.1-0.3-2.1-1-2.7-2.1c-0.8,0.9-1.6,1.7-2.4,2.2
		c-0.2,0.2-0.4,0.2-0.6,0.2c-0.2,0-0.4-0.1-0.5-0.3c-0.1-0.1-0.2-0.3-0.2-0.5c0-0.2,0.1-0.4,0.3-0.6c0.7-0.5,1.9-1.4,2.6-2.3V15z
		 M29.4,9c0.1,0.2,0.2,0.4,0.2,0.6c0,0.2-0.1,0.4-0.3,0.6c-0.1,0.1-0.3,0.2-0.5,0.2c-0.2,0-0.5-0.1-0.6-0.3
		c-0.6-0.9-1.6-2.1-2.3-2.8c-0.1-0.1-0.2-0.3-0.2-0.4c0-0.2,0.1-0.4,0.3-0.5C26.1,6.1,26.3,6,26.4,6s0.4,0.1,0.5,0.2
		C27.7,6.9,28.9,8.2,29.4,9z M39.9,10.4c1.1,0,1.6,0.4,1.6,1.4v6.6c0,1-0.5,1.4-1.6,1.4h-6.8c-1.1,0-1.5-0.4-1.5-1.4v-6.6
		c0-1,0.5-1.4,1.5-1.4h1.9c0.2-0.4,0.4-0.9,0.6-1.4H31c-0.3,0-0.5-0.2-0.5-0.6c0-0.4,0.2-0.6,0.5-0.6h3c-0.3-0.5-0.6-1-0.9-1.4
		C33,6.3,33,6.2,33,6.1c0-0.2,0.1-0.4,0.4-0.5c0.1,0,0.2-0.1,0.3-0.1c0.2,0,0.5,0.1,0.6,0.3c0.4,0.5,0.8,1.3,1.2,2h2.2
		c0.4-0.6,0.9-1.3,1.2-2c0.1-0.2,0.3-0.3,0.5-0.3c0.1,0,0.2,0,0.3,0c0.3,0.1,0.5,0.3,0.5,0.5c0,0.1,0,0.2-0.1,0.2
		c-0.3,0.5-0.6,1-0.9,1.5h3.1c0.3,0,0.5,0.2,0.5,0.6c0,0.4-0.2,0.6-0.5,0.6h-5.2c-0.2,0.5-0.3,1-0.6,1.4H39.9z M40.1,13.1v-1.1
		c0-0.4-0.2-0.5-0.5-0.5h-6.1c-0.4,0-0.6,0.1-0.6,0.5v1.1H40.1z M33,15.9h7.2v-1.6H33V15.9z M33,18.2c0,0.4,0.2,0.5,0.6,0.5h6.1
		c0.4,0,0.5-0.1,0.5-0.5V17H33V18.2z"/>
</g>
<g>
	<path class="st0" d="M50,9.4c-0.5,0-0.7-0.3-0.7-0.8c0-0.5,0.3-0.8,0.7-0.8l9.7-0.1c0.8,0,1.3,0.3,1.7,0.8c0.2,0.3,0.2,0.6,0.2,0.9
		c0,0.3-0.1,0.7-0.2,1.1c-0.6,1.7-1.7,3.3-3,4.9c2.1,1.7,3.7,2.9,5.3,4.7c0.2,0.2,0.3,0.4,0.3,0.7c0,0.2-0.1,0.4-0.2,0.6
		c-0.2,0.2-0.4,0.3-0.7,0.3c-0.2,0-0.5-0.1-0.7-0.3c-1.4-1.7-2.9-3.1-5-4.8c-2.1,2.3-5.1,4.2-8,5.3C49.1,22,49,22,48.8,22
		c-0.3,0-0.6-0.2-0.7-0.5c0-0.1-0.1-0.2-0.1-0.3c0-0.3,0.2-0.7,0.6-0.8c2.3-0.9,4.7-2.2,6.7-4.1c2-1.8,3.6-4,4.3-6.2
		c0.1-0.2,0.1-0.3,0.1-0.4c0-0.3-0.2-0.4-0.7-0.4L50,9.4z"/>
	<path class="st0" d="M67.1,13.7c-0.4,0-0.7-0.3-0.7-0.8c0-0.4,0.2-0.7,0.7-0.7H82c0.5,0,0.7,0.3,0.7,0.7c0,0.4-0.2,0.8-0.7,0.8h-6
		c0,2.3-0.5,4.1-1.5,5.6c-1,1.6-2.7,2.7-4.6,3.2c-0.2,0-0.3,0.1-0.4,0.1c-0.3,0-0.6-0.2-0.7-0.5c0-0.1-0.1-0.2-0.1-0.3
		c0-0.3,0.2-0.7,0.6-0.8c1.7-0.4,3.1-1.4,3.9-2.7c0.7-1.2,1.1-2.6,1.1-4.6H67.1z M80.3,7.4c0.5,0,0.7,0.3,0.7,0.8
		c0,0.4-0.2,0.8-0.7,0.8H68.8c-0.4,0-0.7-0.4-0.7-0.8c0-0.4,0.2-0.8,0.7-0.8H80.3z"/>
	<path class="st0" d="M87.8,11.2c0.3,0,0.5,0.1,0.6,0.4c0.6,1.1,1.2,2.7,1.6,3.9c0,0.1,0,0.2,0,0.3c0,0.3-0.2,0.5-0.5,0.6
		c-0.1,0-0.2,0.1-0.3,0.1c-0.3,0-0.6-0.2-0.7-0.5c-0.4-1.2-1-2.8-1.5-3.9C87,12.1,87,12,87,11.9c0-0.3,0.2-0.5,0.5-0.6
		C87.6,11.2,87.7,11.2,87.8,11.2z M99,11.5c0,0,0,0.1,0,0.1c-0.2,2.5-1.1,5.1-2.4,6.8c-1.5,2-3.8,3.5-6.4,4c-0.1,0-0.2,0-0.2,0
		c-0.3,0-0.6-0.2-0.7-0.5c0-0.1,0-0.2,0-0.3c0-0.3,0.2-0.6,0.5-0.6c2.1-0.5,4.3-1.8,5.6-3.6c1.1-1.6,1.8-3.9,2.1-6.2
		c0-0.4,0.4-0.6,0.7-0.6c0,0,0.1,0,0.1,0C98.8,10.9,99,11.1,99,11.5z M91.8,10.4c0.3,0,0.5,0.1,0.6,0.4c0.6,1.1,1.1,2.6,1.5,3.9
		c0,0.1,0,0.1,0,0.2c0,0.3-0.2,0.5-0.5,0.6c-0.1,0-0.2,0-0.3,0c-0.3,0-0.6-0.2-0.6-0.4c-0.3-1.2-0.9-2.7-1.4-3.8
		C91,11.3,91,11.2,91,11.1c0-0.3,0.2-0.5,0.5-0.6C91.6,10.4,91.7,10.4,91.8,10.4z"/>
	<path class="st0" d="M111.3,11.4c-0.2,2-0.6,3.8-1.2,5.3c-1,2.3-2.6,4.2-4.9,5.5c-0.2,0.1-0.3,0.1-0.5,0.1c-0.3,0-0.5-0.1-0.7-0.4
		c-0.1-0.1-0.1-0.3-0.1-0.4c0-0.3,0.2-0.6,0.4-0.7c2-1.2,3.5-2.9,4.3-4.9c0.6-1.3,0.9-2.8,1-4.5h-4.5c-0.5,0-0.7-0.2-0.7-0.7
		c0-0.5,0.2-0.8,0.7-0.8l4.6,0c0.1-1,0.1-1.8,0.1-2.8c0-0.5,0.3-0.7,0.8-0.7c0.5,0,0.8,0.3,0.8,0.8c0,1-0.1,1.8-0.1,2.7l5.2,0
		c1.4,0,2.1,0.7,2.1,2c-0.1,2.8-0.3,5.1-0.5,6.8c-0.4,2.5-1.3,3.3-3.1,3.3c-0.9,0-1.9-0.1-2.6-0.3c-0.3-0.1-0.5-0.4-0.5-0.8
		c0-0.1,0-0.2,0-0.2c0.1-0.4,0.3-0.6,0.7-0.6c0.1,0,0.2,0,0.3,0c0.6,0.2,1.3,0.3,2,0.3c1,0,1.4-0.3,1.7-2.2c0.3-1.6,0.4-3.8,0.5-6.1
		c0,0,0-0.1,0-0.1c0-0.6-0.2-0.8-1-0.8H111.3z"/>
	<path class="st0" d="M122.9,15.5c-0.5,0-0.7-0.3-0.7-0.8c0-0.5,0.3-0.9,0.8-0.9h14.4c0.5,0,0.8,0.4,0.8,0.9c0,0.5-0.3,0.8-0.7,0.8
		H122.9z"/>
</g>
<g>
	<path class="st1" d="M50,9.4c-0.5,0-0.7-0.3-0.7-0.8c0-0.5,0.3-0.8,0.7-0.8l9.7-0.1c0.8,0,1.3,0.3,1.7,0.8c0.2,0.3,0.2,0.6,0.2,0.9
		c0,0.3-0.1,0.7-0.2,1.1c-0.6,1.7-1.7,3.3-3,4.9c2.1,1.7,3.7,2.9,5.3,4.7c0.2,0.2,0.3,0.4,0.3,0.7c0,0.2-0.1,0.4-0.2,0.6
		c-0.2,0.2-0.4,0.3-0.7,0.3c-0.2,0-0.5-0.1-0.7-0.3c-1.4-1.7-2.9-3.1-5-4.8c-2.1,2.3-5.1,4.2-8,5.3C49.1,22,49,22,48.8,22
		c-0.3,0-0.6-0.2-0.7-0.5c0-0.1-0.1-0.2-0.1-0.3c0-0.3,0.2-0.7,0.6-0.8c2.3-0.9,4.7-2.2,6.7-4.1c2-1.8,3.6-4,4.3-6.2
		c0.1-0.2,0.1-0.3,0.1-0.4c0-0.3-0.2-0.4-0.7-0.4L50,9.4z"/>
	<path class="st1" d="M67.1,13.7c-0.4,0-0.7-0.3-0.7-0.8c0-0.4,0.2-0.7,0.7-0.7H82c0.5,0,0.7,0.3,0.7,0.7c0,0.4-0.2,0.8-0.7,0.8h-6
		c0,2.3-0.5,4.1-1.5,5.6c-1,1.6-2.7,2.7-4.6,3.2c-0.2,0-0.3,0.1-0.4,0.1c-0.3,0-0.6-0.2-0.7-0.5c0-0.1-0.1-0.2-0.1-0.3
		c0-0.3,0.2-0.7,0.6-0.8c1.7-0.4,3.1-1.4,3.9-2.7c0.7-1.2,1.1-2.6,1.1-4.6H67.1z M80.3,7.4c0.5,0,0.7,0.3,0.7,0.8
		c0,0.4-0.2,0.8-0.7,0.8H68.8c-0.4,0-0.7-0.4-0.7-0.8c0-0.4,0.2-0.8,0.7-0.8H80.3z"/>
	<path class="st1" d="M87.8,11.2c0.3,0,0.5,0.1,0.6,0.4c0.6,1.1,1.2,2.7,1.6,3.9c0,0.1,0,0.2,0,0.3c0,0.3-0.2,0.5-0.5,0.6
		c-0.1,0-0.2,0.1-0.3,0.1c-0.3,0-0.6-0.2-0.7-0.5c-0.4-1.2-1-2.8-1.5-3.9C87,12.1,87,12,87,11.9c0-0.3,0.2-0.5,0.5-0.6
		C87.6,11.2,87.7,11.2,87.8,11.2z M99,11.5c0,0,0,0.1,0,0.1c-0.2,2.5-1.1,5.1-2.4,6.8c-1.5,2-3.8,3.5-6.4,4c-0.1,0-0.2,0-0.2,0
		c-0.3,0-0.6-0.2-0.7-0.5c0-0.1,0-0.2,0-0.3c0-0.3,0.2-0.6,0.5-0.6c2.1-0.5,4.3-1.8,5.6-3.6c1.1-1.6,1.8-3.9,2.1-6.2
		c0-0.4,0.4-0.6,0.7-0.6c0,0,0.1,0,0.1,0C98.8,10.9,99,11.1,99,11.5z M91.8,10.4c0.3,0,0.5,0.1,0.6,0.4c0.6,1.1,1.1,2.6,1.5,3.9
		c0,0.1,0,0.1,0,0.2c0,0.3-0.2,0.5-0.5,0.6c-0.1,0-0.2,0-0.3,0c-0.3,0-0.6-0.2-0.6-0.4c-0.3-1.2-0.9-2.7-1.4-3.8
		C91,11.3,91,11.2,91,11.1c0-0.3,0.2-0.5,0.5-0.6C91.6,10.4,91.7,10.4,91.8,10.4z"/>
	<path class="st1" d="M111.3,11.4c-0.2,2-0.6,3.8-1.2,5.3c-1,2.3-2.6,4.2-4.9,5.5c-0.2,0.1-0.3,0.1-0.5,0.1c-0.3,0-0.5-0.1-0.7-0.4
		c-0.1-0.1-0.1-0.3-0.1-0.4c0-0.3,0.2-0.6,0.4-0.7c2-1.2,3.5-2.9,4.3-4.9c0.6-1.3,0.9-2.8,1-4.5h-4.5c-0.5,0-0.7-0.2-0.7-0.7
		c0-0.5,0.2-0.8,0.7-0.8l4.6,0c0.1-1,0.1-1.8,0.1-2.8c0-0.5,0.3-0.7,0.8-0.7c0.5,0,0.8,0.3,0.8,0.8c0,1-0.1,1.8-0.1,2.7l5.2,0
		c1.4,0,2.1,0.7,2.1,2c-0.1,2.8-0.3,5.1-0.5,6.8c-0.4,2.5-1.3,3.3-3.1,3.3c-0.9,0-1.9-0.1-2.6-0.3c-0.3-0.1-0.5-0.4-0.5-0.8
		c0-0.1,0-0.2,0-0.2c0.1-0.4,0.3-0.6,0.7-0.6c0.1,0,0.2,0,0.3,0c0.6,0.2,1.3,0.3,2,0.3c1,0,1.4-0.3,1.7-2.2c0.3-1.6,0.4-3.8,0.5-6.1
		c0,0,0-0.1,0-0.1c0-0.6-0.2-0.8-1-0.8H111.3z"/>
	<path class="st1" d="M122.9,15.5c-0.5,0-0.7-0.3-0.7-0.8c0-0.5,0.3-0.9,0.8-0.9h14.4c0.5,0,0.8,0.4,0.8,0.9c0,0.5-0.3,0.8-0.7,0.8
		H122.9z"/>
</g>
<path class="st2" d="M50,9.4c-0.5,0-0.7-0.3-0.7-0.8c0-0.5,0.3-0.8,0.7-0.8l9.7-0.1c0.8,0,1.3,0.3,1.7,0.8c0.2,0.3,0.2,0.6,0.2,0.9
	c0,0.3-0.1,0.7-0.2,1.1c-0.6,1.7-1.7,3.3-3,4.9c2.1,1.7,3.7,2.9,5.3,4.7c0.2,0.2,0.3,0.4,0.3,0.7c0,0.2-0.1,0.4-0.2,0.6
	c-0.2,0.2-0.4,0.3-0.7,0.3c-0.2,0-0.5-0.1-0.7-0.3c-1.4-1.7-2.9-3.1-5-4.8c-2.1,2.3-5.1,4.2-8,5.3C49.1,22,49,22,48.8,22
	c-0.3,0-0.6-0.2-0.7-0.5c0-0.1-0.1-0.2-0.1-0.3c0-0.3,0.2-0.7,0.6-0.8c2.3-0.9,4.7-2.2,6.7-4.1c2-1.8,3.6-4,4.3-6.2
	c0.1-0.2,0.1-0.3,0.1-0.4c0-0.3-0.2-0.4-0.7-0.4L50,9.4z"/>
<path class="st2" d="M67.1,13.7c-0.4,0-0.7-0.3-0.7-0.8c0-0.4,0.2-0.7,0.7-0.7H82c0.5,0,0.7,0.3,0.7,0.7c0,0.4-0.2,0.8-0.7,0.8h-6
	c0,2.3-0.5,4.1-1.5,5.6c-1,1.6-2.7,2.7-4.6,3.2c-0.2,0-0.3,0.1-0.4,0.1c-0.3,0-0.6-0.2-0.7-0.5c0-0.1-0.1-0.2-0.1-0.3
	c0-0.3,0.2-0.7,0.6-0.8c1.7-0.4,3.1-1.4,3.9-2.7c0.7-1.2,1.1-2.6,1.1-4.6H67.1z M80.3,7.4c0.5,0,0.7,0.3,0.7,0.8
	c0,0.4-0.2,0.8-0.7,0.8H68.8c-0.4,0-0.7-0.4-0.7-0.8c0-0.4,0.2-0.8,0.7-0.8H80.3z"/>
<path class="st2" d="M87.8,11.2c0.3,0,0.5,0.1,0.6,0.4c0.6,1.1,1.2,2.7,1.6,3.9c0,0.1,0,0.2,0,0.3c0,0.3-0.2,0.5-0.5,0.6
	c-0.1,0-0.2,0.1-0.3,0.1c-0.3,0-0.6-0.2-0.7-0.5c-0.4-1.2-1-2.8-1.5-3.9C87,12.1,87,12,87,11.9c0-0.3,0.2-0.5,0.5-0.6
	C87.6,11.2,87.7,11.2,87.8,11.2z M99,11.5c0,0,0,0.1,0,0.1c-0.2,2.5-1.1,5.1-2.4,6.8c-1.5,2-3.8,3.5-6.4,4c-0.1,0-0.2,0-0.2,0
	c-0.3,0-0.6-0.2-0.7-0.5c0-0.1,0-0.2,0-0.3c0-0.3,0.2-0.6,0.5-0.6c2.1-0.5,4.3-1.8,5.6-3.6c1.1-1.6,1.8-3.9,2.1-6.2
	c0-0.4,0.4-0.6,0.7-0.6c0,0,0.1,0,0.1,0C98.8,10.9,99,11.1,99,11.5z M91.8,10.4c0.3,0,0.5,0.1,0.6,0.4c0.6,1.1,1.1,2.6,1.5,3.9
	c0,0.1,0,0.1,0,0.2c0,0.3-0.2,0.5-0.5,0.6c-0.1,0-0.2,0-0.3,0c-0.3,0-0.6-0.2-0.6-0.4c-0.3-1.2-0.9-2.7-1.4-3.8
	C91,11.3,91,11.2,91,11.1c0-0.3,0.2-0.5,0.5-0.6C91.6,10.4,91.7,10.4,91.8,10.4z"/>
<path class="st2" d="M111.3,11.4c-0.2,2-0.6,3.8-1.2,5.3c-1,2.3-2.6,4.2-4.9,5.5c-0.2,0.1-0.3,0.1-0.5,0.1c-0.3,0-0.5-0.1-0.7-0.4
	c-0.1-0.1-0.1-0.3-0.1-0.4c0-0.3,0.2-0.6,0.4-0.7c2-1.2,3.5-2.9,4.3-4.9c0.6-1.3,0.9-2.8,1-4.5h-4.5c-0.5,0-0.7-0.2-0.7-0.7
	c0-0.5,0.2-0.8,0.7-0.8l4.6,0c0.1-1,0.1-1.8,0.1-2.8c0-0.5,0.3-0.7,0.8-0.7c0.5,0,0.8,0.3,0.8,0.8c0,1-0.1,1.8-0.1,2.7l5.2,0
	c1.4,0,2.1,0.7,2.1,2c-0.1,2.8-0.3,5.1-0.5,6.8c-0.4,2.5-1.3,3.3-3.1,3.3c-0.9,0-1.9-0.1-2.6-0.3c-0.3-0.1-0.5-0.4-0.5-0.8
	c0-0.1,0-0.2,0-0.2c0.1-0.4,0.3-0.6,0.7-0.6c0.1,0,0.2,0,0.3,0c0.6,0.2,1.3,0.3,2,0.3c1,0,1.4-0.3,1.7-2.2c0.3-1.6,0.4-3.8,0.5-6.1
	c0,0,0-0.1,0-0.1c0-0.6-0.2-0.8-1-0.8H111.3z"/>
<path class="st2" d="M122.9,15.5c-0.5,0-0.7-0.3-0.7-0.8c0-0.5,0.3-0.9,0.8-0.9h14.4c0.5,0,0.8,0.4,0.8,0.9c0,0.5-0.3,0.8-0.7,0.8
	H122.9z"/>
<g>
	<path class="st1" d="M21.9,20.8c0,1.2-0.6,1.7-1.7,1.7H7.3c-1.2,0-1.8-0.5-1.8-1.7V7.9c0-1.2,0.6-1.7,1.8-1.7h12.9
		c1.2,0,1.7,0.6,1.7,1.7V20.8z M19.6,21.2c0.6,0,0.9-0.2,0.9-0.7V8.3c0-0.6-0.2-0.7-0.9-0.7H7.9C7.2,7.5,7,7.7,7,8.3v12.2
		c0,0.6,0.2,0.7,0.9,0.7H19.6z M8.7,10.6c-0.3,0-0.5-0.3-0.5-0.6c0-0.4,0.2-0.6,0.5-0.6h10.1c0.3,0,0.5,0.3,0.5,0.6
		c0,0.4-0.2,0.6-0.5,0.6h-4.6v2.9h3.9c0.3,0,0.5,0.2,0.5,0.6c0,0.4-0.2,0.6-0.5,0.6h-3.9v3.3H19c0.3,0,0.5,0.3,0.5,0.6
		c0,0.4-0.2,0.6-0.5,0.6H8.4c-0.3,0-0.5-0.3-0.5-0.6c0-0.4,0.2-0.6,0.5-0.6h4.3v-3.3H9.3c-0.3,0-0.5-0.3-0.5-0.6
		c0-0.4,0.2-0.6,0.5-0.6h3.5v-2.9H8.7z M16.5,15.1c0.2,0,0.3,0.1,0.5,0.2c0.3,0.4,0.7,1,1,1.5c0,0.1,0.1,0.1,0.1,0.2
		c0,0.2-0.1,0.4-0.4,0.6c-0.1,0-0.2,0.1-0.3,0.1c-0.2,0-0.4-0.1-0.5-0.3c-0.2-0.5-0.6-1-0.9-1.5c-0.1-0.1-0.1-0.2-0.1-0.2
		c0-0.2,0.1-0.4,0.4-0.5C16.3,15.1,16.4,15.1,16.5,15.1z"/>
	<path class="st1" d="M28.1,15c0-0.4-0.1-0.5-0.5-0.5h-1.9c-0.3,0-0.6-0.2-0.6-0.7c0-0.4,0.2-0.7,0.6-0.7h2.4c1,0,1.4,0.5,1.4,1.5
		v4.5c0.6,1.2,1.4,1.7,2.5,2c0.9,0.2,2.1,0.3,3.6,0.3c2.3,0,4.7-0.1,6.6-0.2c0,0,0.1,0,0.1,0c0.5,0,0.7,0.2,0.7,0.7c0,0,0,0,0,0.1
		c0,0.4-0.2,0.7-0.7,0.7c-1.9,0.1-4.5,0.2-6.8,0.2c-1.7,0-3.1-0.1-4-0.4c-1.1-0.3-2.1-1-2.7-2.1c-0.8,0.9-1.6,1.7-2.4,2.2
		c-0.2,0.2-0.4,0.2-0.6,0.2c-0.2,0-0.4-0.1-0.5-0.3c-0.1-0.1-0.2-0.3-0.2-0.5c0-0.2,0.1-0.4,0.3-0.6c0.7-0.5,1.9-1.4,2.6-2.3V15z
		 M29.4,9c0.1,0.2,0.2,0.4,0.2,0.6c0,0.2-0.1,0.4-0.3,0.6c-0.1,0.1-0.3,0.2-0.5,0.2c-0.2,0-0.5-0.1-0.6-0.3
		c-0.6-0.9-1.6-2.1-2.3-2.8c-0.1-0.1-0.2-0.3-0.2-0.4c0-0.2,0.1-0.4,0.3-0.5C26.1,6.1,26.3,6,26.4,6s0.4,0.1,0.5,0.2
		C27.7,6.9,28.9,8.2,29.4,9z M39.9,10.4c1.1,0,1.6,0.4,1.6,1.4v6.6c0,1-0.5,1.4-1.6,1.4h-6.8c-1.1,0-1.5-0.4-1.5-1.4v-6.6
		c0-1,0.5-1.4,1.5-1.4h1.9c0.2-0.4,0.4-0.9,0.6-1.4H31c-0.3,0-0.5-0.2-0.5-0.6c0-0.4,0.2-0.6,0.5-0.6h3c-0.3-0.5-0.6-1-0.9-1.4
		C33,6.3,33,6.2,33,6.1c0-0.2,0.1-0.4,0.4-0.5c0.1,0,0.2-0.1,0.3-0.1c0.2,0,0.5,0.1,0.6,0.3c0.4,0.5,0.8,1.3,1.2,2h2.2
		c0.4-0.6,0.9-1.3,1.2-2c0.1-0.2,0.3-0.3,0.5-0.3c0.1,0,0.2,0,0.3,0c0.3,0.1,0.5,0.3,0.5,0.5c0,0.1,0,0.2-0.1,0.2
		c-0.3,0.5-0.6,1-0.9,1.5h3.1c0.3,0,0.5,0.2,0.5,0.6c0,0.4-0.2,0.6-0.5,0.6h-5.2c-0.2,0.5-0.3,1-0.6,1.4H39.9z M40.1,13.1v-1.1
		c0-0.4-0.2-0.5-0.5-0.5h-6.1c-0.4,0-0.6,0.1-0.6,0.5v1.1H40.1z M33,15.9h7.2v-1.6H33V15.9z M33,18.2c0,0.4,0.2,0.5,0.6,0.5h6.1
		c0.4,0,0.5-0.1,0.5-0.5V17H33V18.2z"/>
</g>
<path class="st2" d="M21.9,20.8c0,1.2-0.6,1.7-1.7,1.7H7.3c-1.2,0-1.8-0.5-1.8-1.7V7.9c0-1.2,0.6-1.7,1.8-1.7h12.9
	c1.2,0,1.7,0.6,1.7,1.7V20.8z M19.6,21.2c0.6,0,0.9-0.2,0.9-0.7V8.3c0-0.6-0.2-0.7-0.9-0.7H7.9C7.2,7.5,7,7.7,7,8.3v12.2
	c0,0.6,0.2,0.7,0.9,0.7H19.6z M8.7,10.6c-0.3,0-0.5-0.3-0.5-0.6c0-0.4,0.2-0.6,0.5-0.6h10.1c0.3,0,0.5,0.3,0.5,0.6
	c0,0.4-0.2,0.6-0.5,0.6h-4.6v2.9h3.9c0.3,0,0.5,0.2,0.5,0.6c0,0.4-0.2,0.6-0.5,0.6h-3.9v3.3H19c0.3,0,0.5,0.3,0.5,0.6
	c0,0.4-0.2,0.6-0.5,0.6H8.4c-0.3,0-0.5-0.3-0.5-0.6c0-0.4,0.2-0.6,0.5-0.6h4.3v-3.3H9.3c-0.3,0-0.5-0.3-0.5-0.6
	c0-0.4,0.2-0.6,0.5-0.6h3.5v-2.9H8.7z M16.5,15.1c0.2,0,0.3,0.1,0.5,0.2c0.3,0.4,0.7,1,1,1.5c0,0.1,0.1,0.1,0.1,0.2
	c0,0.2-0.1,0.4-0.4,0.6c-0.1,0-0.2,0.1-0.3,0.1c-0.2,0-0.4-0.1-0.5-0.3c-0.2-0.5-0.6-1-0.9-1.5c-0.1-0.1-0.1-0.2-0.1-0.2
	c0-0.2,0.1-0.4,0.4-0.5C16.3,15.1,16.4,15.1,16.5,15.1z"/>
<path class="st2" d="M28.1,15c0-0.4-0.1-0.5-0.5-0.5h-1.9c-0.3,0-0.6-0.2-0.6-0.7c0-0.4,0.2-0.7,0.6-0.7h2.4c1,0,1.4,0.5,1.4,1.5
	v4.5c0.6,1.2,1.4,1.7,2.5,2c0.9,0.2,2.1,0.3,3.6,0.3c2.3,0,4.7-0.1,6.6-0.2c0,0,0.1,0,0.1,0c0.5,0,0.7,0.2,0.7,0.7c0,0,0,0,0,0.1
	c0,0.4-0.2,0.7-0.7,0.7c-1.9,0.1-4.5,0.2-6.8,0.2c-1.7,0-3.1-0.1-4-0.4c-1.1-0.3-2.1-1-2.7-2.1c-0.8,0.9-1.6,1.7-2.4,2.2
	c-0.2,0.2-0.4,0.2-0.6,0.2c-0.2,0-0.4-0.1-0.5-0.3c-0.1-0.1-0.2-0.3-0.2-0.5c0-0.2,0.1-0.4,0.3-0.6c0.7-0.5,1.9-1.4,2.6-2.3V15z
	 M29.4,9c0.1,0.2,0.2,0.4,0.2,0.6c0,0.2-0.1,0.4-0.3,0.6c-0.1,0.1-0.3,0.2-0.5,0.2c-0.2,0-0.5-0.1-0.6-0.3c-0.6-0.9-1.6-2.1-2.3-2.8
	c-0.1-0.1-0.2-0.3-0.2-0.4c0-0.2,0.1-0.4,0.3-0.5C26.1,6.1,26.3,6,26.4,6s0.4,0.1,0.5,0.2C27.7,6.9,28.9,8.2,29.4,9z M39.9,10.4
	c1.1,0,1.6,0.4,1.6,1.4v6.6c0,1-0.5,1.4-1.6,1.4h-6.8c-1.1,0-1.5-0.4-1.5-1.4v-6.6c0-1,0.5-1.4,1.5-1.4h1.9c0.2-0.4,0.4-0.9,0.6-1.4
	H31c-0.3,0-0.5-0.2-0.5-0.6c0-0.4,0.2-0.6,0.5-0.6h3c-0.3-0.5-0.6-1-0.9-1.4C33,6.3,33,6.2,33,6.1c0-0.2,0.1-0.4,0.4-0.5
	c0.1,0,0.2-0.1,0.3-0.1c0.2,0,0.5,0.1,0.6,0.3c0.4,0.5,0.8,1.3,1.2,2h2.2c0.4-0.6,0.9-1.3,1.2-2c0.1-0.2,0.3-0.3,0.5-0.3
	c0.1,0,0.2,0,0.3,0c0.3,0.1,0.5,0.3,0.5,0.5c0,0.1,0,0.2-0.1,0.2c-0.3,0.5-0.6,1-0.9,1.5h3.1c0.3,0,0.5,0.2,0.5,0.6
	c0,0.4-0.2,0.6-0.5,0.6h-5.2c-0.2,0.5-0.3,1-0.6,1.4H39.9z M40.1,13.1v-1.1c0-0.4-0.2-0.5-0.5-0.5h-6.1c-0.4,0-0.6,0.1-0.6,0.5v1.1
	H40.1z M33,15.9h7.2v-1.6H33V15.9z M33,18.2c0,0.4,0.2,0.5,0.6,0.5h6.1c0.4,0,0.5-0.1,0.5-0.5V17H33V18.2z"/>
</svg>
